<?xml version="1.0" encoding="utf-8"?>
<svg version="1.1" xmlns="http://www.w3.org/2000/svg" xmlns:xlink="http://www.w3.org/1999/xlink" x="0px" y="0px"
	 viewBox="0 0 20 26" style="enable-background:new 0 0 20 26;" xml:space="preserve">
<style type="text/css">
	.st0{fill:#CF155C;}
	.st1{fill:none;}
	.st2{fill:#FFFFFF;}
</style>
<path class="st0" d="M12.8,5.9H7.2l0,0l-0.8,7.7l0,0c1-0.6,2.3-1,3.7-1s2.7,0.4,3.7,1l0,0L12.8,5.9L12.8,5.9z"/>
<path class="st1" d="M12.8,5.9H7.2l0,0l-0.8,7.7l0,0c1-0.6,2.3-1,3.7-1s2.7,0.4,3.7,1l0,0L12.8,5.9L12.8,5.9z"/>
<g>
	<path class="st0" d="M7.4,6.7l-0.7,6.8c0.9-0.6,2.1-0.9,3.3-0.9c1.3,0,2.4,0.3,3.3,0.9l-0.9-6.8H7.4z"/>
	<path class="st0" d="M10,0C4.5,0,0,4.5,0,10c0,2.3,0.8,4.3,2,6l0.2,0.3l0.1,0.1L10,26l7.7-9.6l0.1-0.1L18,16c1.2-1.7,2-3.7,2-6
		C20,4.5,15.5,0,10,0z M15.6,14.9c0,0.4-0.3,0.7-0.7,0.7H5.1c-0.4,0-0.7-0.3-0.7-0.7V5.1c0-0.4,0.3-0.7,0.7-0.7h9.8
		c0.4,0,0.7,0.3,0.7,0.7V14.9z"/>
	<path class="st2" d="M14.9,4.4H5.1c-0.4,0-0.7,0.3-0.7,0.7v9.8c0,0.4,0.3,0.7,0.7,0.7h9.8c0.4,0,0.7-0.3,0.7-0.7V5.1
		C15.6,4.7,15.3,4.4,14.9,4.4z M13.3,13.5c-0.9-0.6-2-0.9-3.3-0.9c-1.2,0-2.4,0.3-3.3,0.9l0.7-6.8h5L13.3,13.5
		C13.3,13.5,13.3,13.4,13.3,13.5C13.3,13.4,13.3,13.5,13.3,13.5z"/>
</g>
</svg>
