<?xml version="1.0" encoding="utf-8"?>
<svg version="1.1" xmlns="http://www.w3.org/2000/svg" xmlns:xlink="http://www.w3.org/1999/xlink" x="0px" y="0px"
	 viewBox="0 0 20 26" style="enable-background:new 0 0 20 26;" xml:space="preserve">
<style type="text/css">
	.st0{fill:#CF155C;}
</style>
<path class="st0" d="M20,10c0-5.5-4.5-10-10-10S0,4.5,0,10c0,2.3,0.8,4.3,2,6h0l0.2,0.3c0,0,0.1,0.1,0.1,0.1L10,26l7.7-9.6
	c0,0,0.1-0.1,0.1-0.1L18,16h0C19.2,14.3,20,12.3,20,10z M10,15c-2.8,0-5-2.2-5-5s2.2-5,5-5s5,2.2,5,5S12.8,15,10,15z"/>
</svg>
